<?xml version="1.0" standalone="no"?>
<!DOCTYPE svg PUBLIC "-//W3C//DTD SVG 20010904//EN"
 "http://www.w3.org/TR/2001/REC-SVG-20010904/DTD/svg10.dtd">
<svg version="1.0" xmlns="http://www.w3.org/2000/svg"
 width="397.000000pt" height="398.000000pt" viewBox="0 0 397.000000 398.000000"
 preserveAspectRatio="xMidYMid meet">

<g transform="translate(0.000000,398.000000) scale(0.100000,-0.100000)"
fill="#000000" stroke="none">
<path d="M1832 3949 c-612 -51 -1175 -390 -1507 -909 -70 -108 -167 -317 -208
-445 -131 -409 -128 -823 9 -1235 237 -712 851 -1221 1600 -1326 177 -24 474
-15 644 21 708 148 1268 641 1489 1310 246 744 24 1575 -559 2092 -324 288
-731 459 -1170 493 -148 11 -150 11 -298 -1z m275 -1079 c218 -29 402 -142
485 -296 32 -59 58 -152 58 -206 l0 -39 -147 3 -147 3 -8 44 c-29 170 -226
280 -448 250 -181 -26 -281 -130 -268 -282 5 -64 33 -107 91 -144 54 -34 118
-55 337 -113 269 -71 387 -123 484 -217 90 -86 132 -200 123 -333 -9 -140 -63
-245 -170 -331 -108 -87 -222 -131 -394 -151 -123 -14 -279 -1 -390 33 -241
74 -409 257 -437 477 l-7 52 149 0 149 0 6 -41 c8 -57 55 -146 97 -180 187
-156 554 -138 667 32 21 33 28 56 31 108 10 170 -90 246 -429 325 -246 58
-394 122 -484 211 -65 63 -101 133 -117 225 -10 61 -10 83 4 152 60 288 389
468 765 418z"/>
</g>
</svg>
