<?xml version="1.0" standalone="no"?>
<!DOCTYPE svg PUBLIC "-//W3C//DTD SVG 20010904//EN"
 "http://www.w3.org/TR/2001/REC-SVG-20010904/DTD/svg10.dtd">
<svg version="1.0" xmlns="http://www.w3.org/2000/svg"
 width="632.000000pt" height="546.000000pt" viewBox="0 0 632.000000 546.000000"
 preserveAspectRatio="xMidYMid meet">

<g transform="translate(0.000000,546.000000) scale(0.100000,-0.100000)"
fill="#000000" stroke="none">
<path d="M0 2730 l0 -2730 3160 0 3160 0 0 2730 0 2730 -3160 0 -3160 0 0
-2730z m3600 2567 c268 -48 519 -133 755 -256 136 -71 163 -88 285 -173 192
-134 372 -304 519 -488 83 -105 107 -141 81 -125 -6 3 -7 -1 -4 -9 3 -9 10
-14 14 -11 5 3 6 -5 2 -17 -3 -13 -1 -19 5 -15 6 4 13 0 16 -8 4 -10 1 -12
-10 -8 -12 5 -14 2 -9 -8 9 -16 -28 23 -62 65 -12 16 -25 26 -29 23 -3 -4 1
-15 11 -26 9 -10 32 -49 51 -86 27 -52 32 -71 25 -86 -9 -15 -7 -17 6 -12 10
4 15 1 13 -8 -1 -8 1 -22 6 -32 4 -10 5 -21 1 -24 -3 -4 -6 1 -6 10 0 9 -5 17
-11 17 -6 0 -8 -9 -4 -20 4 -12 1 -28 -7 -37 -9 -12 -9 -15 0 -9 6 4 12 5 12
2 0 -2 3 -11 6 -20 3 -9 2 -16 -2 -16 -5 0 -40 50 -79 110 -126 198 -268 377
-383 483 -270 249 -553 426 -850 530 -256 90 -426 124 -704 139 -184 11 -219
10 -325 -6 -387 -57 -650 -143 -933 -304 -171 -98 -292 -188 -469 -351 -123
-112 -119 -108 -166 -166 -22 -27 -47 -56 -55 -65 -8 -9 -40 -48 -69 -88 -30
-40 -59 -72 -63 -72 -4 0 -8 -6 -8 -12 -1 -12 -34 -58 -42 -58 -2 0 -4 9 -4
19 0 11 4 17 8 15 12 -8 23 27 11 35 -18 11 -34 49 -23 56 5 3 10 15 10 25 0
10 4 20 8 22 5 2 25 28 45 58 98 149 303 368 469 501 377 301 796 472 1308
533 19 2 141 3 270 1 200 -2 256 -6 380 -28z m413 -816 c93 -22 192 -82 184
-111 -3 -12 0 -17 8 -13 10 3 13 -9 13 -51 0 -31 -3 -56 -7 -56 -3 0 -13 15
-21 33 -19 40 -95 92 -169 114 -80 24 -282 21 -431 -5 -232 -42 -471 -123
-715 -242 -296 -145 -545 -333 -659 -498 -21 -30 -41 -63 -46 -75 -8 -20 -9
-18 -9 10 -1 17 3 34 9 38 5 3 7 37 5 76 -5 84 1 95 89 187 233 243 902 547
1324 601 128 16 340 13 425 -8z m208 -384 c-10 -9 -11 -8 -5 6 3 10 9 15 12
12 3 -3 0 -11 -7 -18z m-14 -36 c-2 -10 0 -26 6 -36 7 -13 6 -16 -2 -11 -15 9
-14 -7 1 -22 9 -9 9 -12 0 -12 -7 0 -12 -6 -12 -13 0 -20 -67 -83 -118 -112
-58 -33 -115 -32 -120 2 -3 18 8 28 60 54 87 44 125 75 154 126 27 45 40 55
31 24z m1070 -173 c-3 -8 -6 -5 -6 6 -1 11 2 17 5 13 3 -3 4 -12 1 -19z
m-3039 -863 c67 -100 204 -252 357 -395 55 -52 157 -150 226 -217 l125 -124
80 34 c137 59 668 229 964 310 229 63 220 61 220 38 0 -22 19 -15 -500 -185
-322 -106 -682 -235 -698 -250 -2 -2 40 -54 93 -116 198 -230 274 -382 283
-566 8 -182 -31 -285 -150 -401 -155 -150 -380 -221 -663 -210 -156 6 -238 23
-338 69 -53 25 -67 36 -64 49 3 10 -1 20 -9 23 -8 3 -14 11 -14 18 0 9 3 9 11
-2 9 -12 10 -11 6 7 l-5 22 52 -21 c109 -44 182 -59 302 -65 264 -13 515 66
655 207 79 79 110 144 116 245 11 172 -57 321 -262 570 -45 55 -90 106 -99
114 -14 12 -34 3 -158 -64 -232 -127 -453 -272 -544 -357 l-30 -28 -22 23 -22
24 62 60 c115 109 310 242 515 350 81 43 120 69 117 77 -3 8 -102 108 -220
222 -213 208 -359 364 -420 449 -25 35 -31 54 -30 87 1 24 -2 46 -7 49 -5 4
-6 16 -2 29 4 12 8 20 10 18 2 -2 30 -43 63 -93z m-58 -1295 c0 -5 -4 -10 -10
-10 -5 0 -10 5 -10 10 0 6 5 10 10 10 6 0 10 -4 10 -10z m3094 -67 c-4 -16
-13 -35 -20 -44 -16 -18 -18 -39 -4 -39 6 0 10 -7 10 -15 0 -8 -4 -15 -9 -15
-10 0 -9 -18 1 -35 9 -16 6 -65 -5 -72 -6 -4 -7 -1 -2 8 5 8 4 11 0 6 -5 -4
-10 -15 -11 -25 -4 -35 -14 -66 -21 -71 -5 -3 -14 -17 -22 -31 -31 -56 -160
-217 -254 -316 -214 -225 -493 -422 -767 -539 -45 -19 -85 -35 -88 -35 -4 0
47 30 113 66 109 60 185 109 108 70 -67 -34 -43 -14 47 40 179 106 431 301
530 410 94 104 190 231 190 251 0 5 -56 -48 -125 -116 -69 -68 -128 -121 -132
-117 -4 3 20 35 53 69 98 101 196 227 280 357 26 41 58 91 70 110 12 19 30 52
40 73 21 44 27 47 18 10z m-4113 -405 c357 -480 873 -830 1449 -982 30 -8 45
-15 34 -15 -39 -2 -207 47 -324 94 -141 57 -365 172 -485 250 -261 168 -515
410 -689 658 -63 89 -53 86 15 -5z m4092 45 c-7 -2 -13 -9 -13 -14 0 -6 -5
-15 -10 -22 -6 -7 -40 -52 -77 -102 -94 -126 -324 -352 -473 -464 -127 -95
-158 -121 -130 -106 35 19 151 104 240 176 118 95 400 384 400 410 0 5 7 12
15 15 8 4 15 13 15 20 0 8 7 17 15 20 8 4 15 11 15 18 0 6 9 17 21 24 17 11
20 11 13 0 -9 -15 -73 -107 -85 -123 -5 -5 -35 -44 -68 -85 -128 -163 -340
-354 -536 -485 -368 -245 -810 -395 -1237 -421 -98 -6 -187 0 -175 13 4 3 70
12 149 19 79 8 163 18 188 23 l45 10 -45 -4 c-149 -14 -449 -17 -569 -5 -72 7
-130 14 -128 17 2 2 77 -1 166 -7 649 -43 1310 173 1796 589 104 89 250 237
339 346 27 33 56 66 65 73 8 6 11 12 6 12 -5 0 1 9 13 20 12 12 22 25 22 30 0
6 8 10 18 9 10 0 12 -3 5 -6z m-503 -298 c-7 -9 -27 -25 -44 -36 -25 -17 -24
-14 8 15 41 38 58 47 36 21z m-720 -443 c0 -5 -25 -16 -55 -24 -66 -18 -64
-10 3 13 26 9 48 17 50 18 1 0 2 -3 2 -7z m-1547 -159 c44 -13 77 -26 74 -29
-2 -3 -51 11 -108 31 -57 19 -111 37 -119 39 -25 7 -90 36 -90 41 0 2 37 -10
83 -27 45 -16 117 -41 160 -55z m791 5 c-6 -10 -95 -10 -111 0 -6 4 18 7 52 8
35 0 62 -3 59 -8z m-575 -64 c10 -9 -35 -3 -49 6 -11 8 -7 9 15 4 17 -4 32 -8
34 -10z m1048 -30 c-3 -3 -12 -4 -19 -1 -8 3 -5 6 6 6 11 1 17 -2 13 -5z m-40
-10 c-3 -3 -12 -4 -19 -1 -8 3 -5 6 6 6 11 1 17 -2 13 -5z m-44 -11 c-7 -2
-21 -2 -30 0 -10 3 -4 5 12 5 17 0 24 -2 18 -5z m-60 -10 c-7 -2 -21 -2 -30 0
-10 3 -4 5 12 5 17 0 24 -2 18 -5z m-93 -14 c-25 -5 -142 -11 -260 -13 l-215
-4 213 8 c117 4 216 10 219 14 4 3 25 5 47 5 l41 -2 -45 -8z m-707 -26 c-7 -2
-19 -2 -25 0 -7 3 -2 5 12 5 14 0 19 -2 13 -5z"/>
<path d="M4790 4677 c0 -2 15 -16 33 -33 l32 -29 -29 33 c-28 30 -36 37 -36
29z"/>
<path d="M1131 4202 c-14 -26 -14 -49 -1 -57 5 -3 7 0 4 9 -3 8 0 24 6 36 6
12 9 24 7 27 -3 2 -10 -4 -16 -15z"/>
<path d="M2195 3009 c-4 -6 -5 -12 -2 -15 2 -3 7 2 10 11 7 17 1 20 -8 4z"/>
<path d="M3638 243 c6 -2 18 -2 25 0 6 3 1 5 -13 5 -14 0 -19 -2 -12 -5z"/>
<path d="M3583 233 c9 -2 23 -2 30 0 6 3 -1 5 -18 5 -16 0 -22 -2 -12 -5z"/>
</g>
</svg>
